<svg xmlns="http://www.w3.org/2000/svg" viewBox="0 0 298.681 50">
  <defs>
    <style>
      .cls-1 {
        fill: #001423;
      }
    </style>
  </defs>
  <g id="logo-to-vima" transform="translate(0.003 0)">
    <g id="Layer_1" data-name="Layer 1" transform="translate(-0.003 0)">
      <path id="Path_6" data-name="Path 6" class="cls-1" d="M18.963.32h16.2l2.626,9.958a1.641,1.641,0,0,1-.83,2.214c-1.519.675-2.349-.277-3.045-1.107s-4-5.671-9.951-4.01V39.45s-.554,2.491,1.35,3.733c0,0,3.18.972,3.18,3.322a2.572,2.572,0,0,1-2.214,2.626H11.631a2.572,2.572,0,0,1-2.181-2.626c0-2.349,3.18-3.322,3.18-3.322,1.938-1.242,1.384-3.733,1.384-3.733V7.375c-5.975-1.661-9.29,3.18-9.965,4.01s-1.526,1.8-3.045,1.107a1.641,1.641,0,0,1-.851-2.214L2.781.32h16.2" transform="translate(0.003 -0.104)"/>
      <path id="Path_7" data-name="Path 7" class="cls-1" d="M61.26,24.675c0-15.2,8.264-24.3,18.492-24.3s18.465,9.1,18.465,24.3S90.4,50.12,79.752,50.12,61.26,39.885,61.26,24.675Zm25.722-6.913c0-3.315-.419-10.8-6.913-11.059-7.332,0-7.885,7.744-7.885,11.059V32.695c0,3.322.554,11.065,7.885,11.065,6.495-.277,6.913-7.744,6.913-11.065Z" transform="translate(-19.9 -0.12)"/>
      <path id="Path_8" data-name="Path 8" class="cls-1" d="M174.538,49.409c-1.35,0-3.038-.209-3.038-2.417,0-1.661,1.56-2.214,2.383-2.626s1.8-.675,1.8-4.01l-.176-30.7c0-3.322-.972-3.592-1.8-4.01s-2.079-.965-2.079-2.626C171.635.807,173.3.53,174.68.53h22.4c2.208,0,12.719,1.249,12.719,10.647,0,8.993-6.5,11.342-6.5,11.342s8.3,2.761,8.3,13.273-10.228,13.617-15.069,13.617Zm10.89-6.029h5.813c2.349,0,9.816-.412,9.816-8.709s-6.751-8.3-6.751-8.3h-8.878Zm-.135-36.794V20.028h8.3s6.218.419,6.218-6.36c0-6.225-6.218-7.19-7.325-7.19s-7.19.122-7.19.122Z" transform="translate(-55.714 -0.172)"/>
      <path id="Path_9" data-name="Path 9" class="cls-1" d="M263.8,40.832c0,3.315-.884,3.592-1.715,4.01s-2.39.965-2.39,2.626c0,2.214,1.661,2.417,3.045,2.417h11.376c1.35,0,3.038-.2,3.038-2.417,0-1.661-1.56-2.214-2.383-2.626s-1.789-.675-1.789-4.01V10.121c0-3.315,1.134-3.592,1.958-4.01s2.079-.965,2.079-2.626C277.016,1.277,275.355,1,274,1H262.872c-1.384,0-3.038.277-3.038,2.484,0,1.661,1.242,2.214,2.073,2.626s1.89.675,1.89,4.01v7.757H247.891V10.121c0-3.315,1.053-3.592,1.884-4.01s2.073-.965,2.073-2.626c0-2.208-1.654-2.484-3.038-2.484h-11.1c-1.384,0-3.045.277-3.045,2.484,0,1.661,1.249,2.214,2.073,2.626s1.809.675,1.809,4.01V40.832c0,3.315-.8,3.592-1.634,4.01s-2.383.965-2.383,2.626c0,2.214,1.661,2.417,3.038,2.417h11.376c1.384,0,3.045-.2,3.045-2.417,0-1.661-1.56-2.214-2.39-2.626s-1.708-.675-1.708-4.01V24.17H263.8Z" transform="translate(-76.191 -0.325)"/>
      <path id="Path_10" data-name="Path 10" class="cls-1" d="M304.345,49.555c-4.01,0-3.875-2.14-3.875-2.14,0-1.1,0-1.8,1.8-2.349a4.145,4.145,0,0,0,2.9-3.038s4.841-31.11,5.1-33.743A2.592,2.592,0,0,0,308.2,5.247c-2.876-.783-2.626-2.491-2.626-2.491-.135-1.661.972-2.073,3.18-2.073h10.235a1.87,1.87,0,0,1,2.093,1.242C321.635,3.451,327.157,17,327.157,17l6.36-15.076a1.64,1.64,0,0,1,1.8-1.35h9.681s2.491-.277,2.491,2.073c0,0,.135.965-1.384,2.073s-2.626.83-2.214,4.726,3.322,31.805,3.322,31.805-.277,1.931,2.349,3.18c0,0,1.8.776,1.8,2.3s-.554,2.545-2.9,2.545H336.42s-2.8.412-2.9-1.526c-.135-2.626,1.006-2.356,2.214-2.761.83-.277,2.073-.142,1.8-4.152s-3.18-25.162-3.18-25.162l-9.4,23.866-9.816-23.92s-4,25.749-4.172,26.823-.142,1.938,1.938,2.626,1.8,1.249,1.8,2.491-1.107,2.025-2.491,2.025Z" transform="translate(-97.613 -0.183)"/>
      <path id="Path_11" data-name="Path 11" class="cls-1" d="M407.086,49.52c-2.214,0-3.322-.506-3.322-1.89a2.977,2.977,0,0,1,.675-2.073c.277-.554,1.526-.83,2.356-1.242s.824-1.8.547-2.9a22.535,22.535,0,0,0-.824-2.491h-13.4s-.83,2.282-1.107,3.376-.277,2.559,1.8,2.836a2.093,2.093,0,0,1,1.938,2.214c0,2.626-3.025,2.16-3.025,2.16h-9.182c-1.35,0-3.038-.2-3.038-2.4,0-1.661,2.1-1.857,3.011-2.025s1.762-.216,2.7-3.409L394.34,13.4c.911-3.193.979-4.456.068-4.6s-1.58-.432-2.079-2.025c-.675-2.106.83-2.869,2.147-3.288l9.9-3.2s3.112-1.316,3.956,1.722c.675,2.491-.972,3.457-.972,3.457s-1.1.412,0,4.01,9.263,31.11,9.681,32.386a4.051,4.051,0,0,0,2.768,2.626,3.038,3.038,0,0,1,2.484,2.633,2.316,2.316,0,0,1-2.349,2.437ZM399.62,17.492l-4.726,15.346h9.614Z" transform="translate(-123.613 0)"/>
    </g>
  </g>
</svg>
