<svg xmlns="http://www.w3.org/2000/svg" viewBox="0 0 228 49.484">
  <defs>
    <style>
      .cls-1 {
        fill: #183d84;
      }
    </style>
  </defs>
  <g id="logo_tanea" transform="translate(0 0)">
    <g id="Layer_1" data-name="Layer 1" transform="translate(0 0)">
      <path id="Path_1" data-name="Path 1" class="cls-1" d="M199.262,46.01V3.377A3.1,3.1,0,0,0,195.934,0h-3.084c-2.054,0-3.3,1.042-3.3,3.377V15.422L170.838,1.4A5.7,5.7,0,0,0,166.663,0H163.9A3.011,3.011,0,0,0,161,3.048V45.815a3.143,3.143,0,0,0,3.328,3.432h3.084c2.054,0,3.322-1.091,3.322-3.432v-22.9l18.817,14.459v8.534a3.14,3.14,0,0,0,3.328,3.432h3.078c2.054,0,3.334-.975,3.334-3.31" transform="translate(-62.861 0)"/>
      <path id="Path_2" data-name="Path 2" class="cls-1" d="M21.871,16.428h9.064a3.43,3.43,0,0,0,2.926-3.017V3.938A3.463,3.463,0,0,0,30.935.89H2.926A3.487,3.487,0,0,0,0,3.938V13.41a3.43,3.43,0,0,0,2.926,3.017H12V46.552a3.641,3.641,0,0,0,3.048,3.121h3.822a3.667,3.667,0,0,0,3.048-3.121Z" transform="translate(0 -0.347)"/>
      <path id="Path_3" data-name="Path 3" class="cls-1" d="M267.078.36c2.268,0,3.328,1.323,3.328,3.444V8.236c0,2.121-1.061,3.432-3.328,3.432H251.126v3.816h18.019c1.335,0,3.511.482,3.535,2.987v5.248c0,2.6-1.688,3.017-3.048,3.017L251.09,26.8v7.437H272c1.335,0,2.438,1.64,2.438,3.048v9.265A3.469,3.469,0,0,1,271.51,49.6H243.982c-2.268,0-3.322-1.311-3.322-3.432V3.834c0-2.341,1.274-3.414,3.328-3.414Z" transform="translate(-93.963 -0.141)"/>
      <path id="Path_4" data-name="Path 4" class="cls-1" d="M80.784,26.749H71.525l2.213-6.809c.36-.951,1.292-2.908,2.487-2.908s2.048,1.981,2.371,2.908ZM96.907,45.932,84.454,6.652c-1.3-4.194-4.712-6.6-8.2-6.6s-6.821,2.438-8.144,6.6L55.6,45.932c-.762,2.706-.049,3.572,1.487,3.572h5.425c1.158,0,2-.427,2.938-3.267l1.536-5.285h18.4L87,46.249c.853,2.834,1.829,3.255,2.987,3.255h5.425c1.536,0,2.249-.866,1.493-3.572" transform="translate(-21.59 -0.02)"/>
      <path id="Path_5" data-name="Path 5" class="cls-1" d="M330.767,26.749h-9.259l2.219-6.809c.354-.951,1.292-2.908,2.481-2.908s2.054,1.981,2.377,2.908ZM346.89,45.932,334.443,6.652c-1.335-4.194-4.712-6.6-8.2-6.6s-6.827,2.438-8.15,6.6l-12.5,39.28c-.762,2.706-.055,3.572,1.481,3.572H312.5c1.158,0,2-.427,2.938-3.267l1.536-5.285h18.4l1.609,5.3c.853,2.834,1.829,3.255,2.987,3.255H345.4c1.542,0,2.249-.866,1.493-3.572" transform="translate(-119.195 -0.02)"/>
    </g>
  </g>
</svg>
