<svg xmlns="http://www.w3.org/2000/svg" viewBox="0 0 463.91 297.88"><defs><style>.cls-1{fill:#0099d8;}.cls-2{fill:#839097;}.cls-3{fill:#c4161c;}</style></defs><title>new-logo</title><g id="Layer_2" data-name="Layer 2"><g id="Layer_1-2" data-name="Layer 1"><path class="cls-1" d="M.19,247.36c-1.57,0,7.06-13.31,8.23-15.66C14.31,218.78,31.56,161.63,39,120.92c3.53-18.79,3.14-33.66,3.14-43.84H92.44C86.54,85.3,80.26,94.7,70,130.32c-20.05,72.41-22.4,82.2-22,117Z"/><path class="cls-1" d="M163.46,71.28a164.52,164.52,0,0,0-13.78,38.13c31.37-31.54,60.38-34.27,69.73-34.27,17.92,0,26.11,11.28,26.11,23.33a40.71,40.71,0,0,1-2.73,14.07L214,207.3a14,14,0,0,0-.78,4.3c0,7.42,7.84,7.42,9.41,7.42,11.37,0,21.93-10.86,23.75-13.21-19.89,25.75-41.75,45.82-54.44,45.42-8.27-.27-15.36-4.31-15.36-14.48,0-10.95,4.72-26.6,12.21-50.85L205,131.35c1.57-5.49,3.14-10.58,3.14-16.07a12,12,0,0,0-3.53-9,15.67,15.67,0,0,0-8.23-2.75c-18.44,0-44.32,26.26-54.47,42.49-10.59,18-25.11,59.09-26.29,101.35H65c-1.17,0,3.93-5.48,4.71-6.27,9-9.39,13.34-21.51,16.87-34L105,146c3.92-14.47,9-31.3,9.42-63.38Z"/><path class="cls-2" d="M275,239.78a12,12,0,0,1-12,12,11.8,11.8,0,0,1-11.77-12c0-6.66,4.92-12.46,11.77-12.46,7.28,0,12,6.44,12,12.46"/><path class="cls-2" d="M364.22,166.15c-7.77-11.52-17.69-11.52-19.84-11.52-26.75,0-53.74,36.85-53.74,66.66,0,16.1,8.86,29.77,28.5,29.77,12.51,0,21.35-6.51,25.24-9.33-2.81,12.32-4.53,20.66-9.28,28.35-3.45,6-11.86,12.61-23.72,12.61-12.53,0-21.17-7.26-25.06-20.3l-6.47,19.24c11,12.78,20.94,16.25,32.39,16.25,10.78,0,21.35-3,29.76-10.84,10.14-9.48,12.73-20.8,14-28.07,3-13.55,5.61-27,7.55-33.18l8-27.87c6.26-22.16,8.84-31,18.77-41.9h-26.1Zm-38,69.72c-8.84,0-16.18-4.09-16.18-17.67,0-18.35,9.92-49.44,32.57-49.44,10.14,0,14.45,6.43,14.45,11.79,0,17.58-11,44.17-11.43,44.81-2.8,6-11,10.51-19.41,10.51"/><path class="cls-2" d="M379.55,249.67l8-17.87c.43-.86,13.81-36.59,15.1-62.42a81,81,0,0,0,0-10.34l24.82-7.11-3.67,17.4c6.9-8.37,15.1-14.38,25-14.38,6,0,12.73,2.15,15.1,8.15l-12.73,18.27c-3-8-9.92-8-10.36-8-10.14,0-21.79,11-24.81,22L407.6,226a77.3,77.3,0,0,0-2.59,23.7Z"/><path class="cls-3" d="M75.8,62.16A31.08,31.08,0,1,0,44.72,31.08,31.08,31.08,0,0,0,75.8,62.16"/></g></g></svg>